<svg style="width=35px" version="1.0" xmlns="http://www.w3.org/2000/svg"
 viewBox="0 0 1280.000000 1237.000000"
 preserveAspectRatio="xMidYMid meet">
<g transform="translate(0.000000,1237.000000) scale(0.100000,-0.100000)"
fill="#aa1212" stroke="none">
<path d="M10950 12125 c-101 -37 -874 -310 -1070 -377 -1078 -371 -1770 -536
-2517 -598 -100 -8 -135 -7 -195 5 -113 24 -222 62 -355 125 -151 72 -227 117
-563 335 -146 95 -307 196 -357 224 -397 223 -652 270 -1048 192 -93 -18 -280
-55 -415 -82 -481 -94 -919 -194 -1555 -354 -416 -105 -534 -135 -795 -206
-240 -64 -275 -74 -809 -219 -282 -77 -522 -140 -532 -140 -11 0 -19 7 -19 16
0 29 -101 211 -146 262 -102 117 -213 120 -279 9 -86 -147 -65 -433 52 -707
25 -58 69 -170 98 -250 462 -1267 1329 -3628 2385 -6490 171 -465 385 -1045
475 -1290 90 -245 303 -827 475 -1295 172 -467 317 -862 322 -877 15 -42 198
-131 281 -136 57 -4 66 -1 94 22 43 36 58 85 57 186 -3 201 -80 480 -291 1040
-97 256 -613 1667 -1070 2920 -63 173 -132 362 -153 420 -21 58 -61 170 -90
250 -28 80 -69 192 -90 250 -169 465 -281 793 -274 800 10 10 280 112 649 245
72 26 166 61 210 77 335 123 800 275 1157 378 337 97 836 213 1033 239 39 6
149 21 245 35 151 21 372 43 597 60 133 9 387 -104 833 -374 569 -344 791
-430 1105 -430 132 0 228 15 359 54 44 14 131 32 191 41 167 25 460 81 653
126 491 113 836 213 1937 563 270 85 603 188 740 229 l250 74 3 84 c9 238 -67
558 -240 1004 -38 99 -112 302 -165 450 -52 149 -107 306 -123 350 -16 44 -56
161 -90 260 -34 99 -140 407 -236 685 -95 278 -277 804 -403 1170 -145 422
-234 666 -242 667 -8 1 -43 -9 -79 -22z"/>
</g>
</svg>
